/* XPM */
static char * mc_xpm[] = {
"16 16 13 1",
" 	c #B58D4F",
".	c #B8945E",
"+	c #C19F6B",
"@	c #967341",
"#	c #A7824D",
"$	c #7D6237",
"%	c #987241",
"&	c #7D6239",
"*	c #67502C",
"=	c #7F6137",
"-	c #B68C4F",
";	c #A9814D",
">	c #674F2E",
"  ...+++.++....@",
"..  @# ...  ..##",
".......   +++++@",
"@@$%@&**=$*$****",
".+#++++@....  #-",
"... # #@#  .....",
".. ....@...  #..",
"**$*$$$$@@@$$@@$",
" ##-  ++.......@",
"...... ##  # ##@",
"+.+++++........#",
"*****$*$$@@@$$**",
".#.....@++ @ ...",
"  ..## @;....## ",
".......#++......",
"****$$@@@&$$*$>*"};
