/* XPM */
static char * mur_bleu_xpm[] = {
"16 16 2 1",
" 	c #0054FF",
".	c #00A8FF",
"                ",
" .............. ",
" .............. ",
" .............. ",
" .............. ",
"                ",
".......  .......",
".......  .......",
".......  .......",
".......  .......",
"                ",
" .............. ",
" .............. ",
" .............. ",
" .............. ",
"                "};
